<?xml version="1.0" standalone="no"?>
<!DOCTYPE svg PUBLIC "-//W3C//DTD SVG 20010904//EN"
 "http://www.w3.org/TR/2001/REC-SVG-20010904/DTD/svg10.dtd">
<svg version="1.0" xmlns="http://www.w3.org/2000/svg"
 width="536.000000pt" height="536.000000pt" viewBox="0 0 536.000000 536.000000"
 preserveAspectRatio="xMidYMid meet">
<metadata>
Created by potrace 1.14, written by Peter Selinger 2001-2017
</metadata>
<g transform="translate(0.000000,536.000000) scale(0.100000,-0.100000)"
fill="#000000" stroke="none">
<path d="M770 5333 c-60 -9 -161 -50 -214 -86 -56 -39 -131 -124 -160 -181
-59 -116 -56 15 -53 -2316 l2 -2145 22 -67 c59 -184 183 -333 348 -420 226
-118 498 -106 705 31 70 46 177 154 471 476 81 89 105 137 111 220 16 247
-263 405 -467 264 -22 -15 -78 -69 -125 -120 -116 -127 -112 -123 -224 -243
-91 -97 -103 -106 -135 -106 -47 0 -83 19 -99 52 -9 20 -12 429 -10 1971 l3
1946 40 -36 c22 -19 69 -61 104 -92 34 -31 75 -67 91 -81 15 -14 58 -52 96
-85 37 -33 75 -67 84 -75 9 -8 49 -44 90 -80 82 -71 130 -114 164 -145 12 -11
55 -49 96 -85 40 -36 81 -72 90 -80 9 -8 49 -44 90 -80 41 -36 77 -68 80 -71
3 -3 30 -27 60 -54 30 -26 87 -77 126 -112 40 -35 81 -72 91 -81 11 -9 49 -43
84 -74 35 -31 73 -65 85 -75 12 -10 54 -47 94 -83 40 -36 81 -72 90 -80 23
-20 160 -142 174 -155 6 -5 49 -44 96 -85 47 -41 101 -89 120 -107 19 -17 44
-40 56 -50 77 -66 160 -140 173 -154 9 -9 40 -35 69 -57 159 -124 373 -79 459
96 24 48 28 69 27 137 0 124 -21 155 -214 325 -40 36 -94 83 -119 105 -25 22
-52 47 -61 55 -14 13 -111 99 -209 185 -19 17 -46 41 -60 53 -22 20 -55 50
-165 147 -6 6 -34 30 -61 55 -43 39 -159 142 -215 190 -59 52 -156 137 -170
150 -9 8 -52 47 -95 85 -44 39 -86 77 -95 85 -9 8 -43 38 -75 67 -33 28 -72
62 -86 75 -26 24 -156 140 -192 171 -12 10 -48 42 -81 72 -34 29 -72 63 -86
75 -14 12 -41 36 -60 53 -19 18 -71 64 -115 102 -44 39 -87 77 -95 85 -8 8
-51 47 -95 85 -75 66 -144 127 -169 150 -107 101 -222 172 -304 190 -38 8
-147 13 -182 8z"/>
<path d="M4217 5169 c-145 -20 -258 -79 -417 -219 -35 -30 -71 -62 -80 -70
-17 -15 -153 -136 -174 -155 -6 -5 -45 -39 -86 -75 -41 -35 -77 -67 -80 -70
-3 -3 -41 -36 -85 -75 -143 -126 -155 -138 -183 -194 -36 -75 -38 -193 -4
-258 77 -147 238 -208 386 -148 33 13 62 28 65 32 3 4 38 35 76 68 39 33 72
62 75 65 3 3 41 37 85 75 44 39 85 75 91 80 6 6 41 37 79 70 37 33 73 65 79
70 6 6 47 42 91 80 44 39 89 78 100 89 11 10 35 25 53 32 27 12 37 12 66 0 72
-30 66 143 64 -1935 l-3 -1873 -21 19 c-12 10 -61 54 -109 98 -147 133 -258
233 -295 265 -14 12 -45 40 -70 63 -25 23 -108 98 -185 167 -77 69 -158 141
-180 161 -81 74 -104 95 -171 154 -37 33 -93 83 -124 112 -31 29 -65 60 -77
70 -28 25 -152 136 -184 164 -14 13 -59 53 -99 89 -40 36 -80 72 -89 80 -9 9
-58 54 -110 100 -52 47 -102 92 -111 100 -9 8 -39 35 -66 59 -27 24 -86 78
-131 119 -46 41 -91 82 -101 91 -23 20 -166 147 -201 180 -14 13 -59 53 -100
90 -41 36 -95 85 -120 109 -137 129 -320 135 -441 13 -66 -67 -84 -110 -84
-206 -1 -139 30 -180 328 -438 12 -10 57 -51 100 -90 44 -40 89 -80 100 -90
12 -10 53 -47 91 -82 39 -35 79 -72 91 -82 12 -10 59 -52 105 -94 46 -42 102
-91 123 -110 22 -19 54 -47 71 -64 17 -16 49 -46 71 -65 46 -41 220 -198 244
-220 9 -8 54 -49 101 -90 46 -41 109 -97 139 -125 62 -57 52 -48 155 -140 43
-38 86 -77 95 -85 9 -8 56 -51 106 -95 49 -44 107 -97 129 -117 22 -20 51 -46
65 -58 14 -12 61 -54 105 -94 44 -40 132 -119 195 -176 63 -56 135 -121 160
-144 25 -23 85 -77 135 -121 49 -44 106 -95 125 -113 45 -42 124 -88 193 -111
68 -24 208 -26 281 -4 180 53 324 209 356 384 7 37 9 756 8 2120 l-3 2064 -23
65 c-49 134 -103 221 -191 303 -155 145 -372 214 -584 186z"/>
</g>
</svg>
